PathFileType	4	(X/Y/Z)	C:\Users\dbl\Desktop\20210112(1)\20210112\bx_y_0_1802.trc
DataRate	CameraRate	NumFrames	NumMarkers	Units	OrigDataRate	OrigDataStartFrame	OrigNumFrames
50.00	50.00	       8	43	mm	50.00	329	       375
Frame#	Time	Top.Head			R.Acromium			L.Acromium			Sternum			R.ASIS			L.ASIS			V.Sacral			R.Thigh.Upper			R.Thigh.Front			R.Thigh.Rear			R.Knee.Lat			R.Knee.Med			R.Shank.Upper			R.Shank.Front			R.Shank.Rear			R.Ankle.Lat			R.Midfoot.Lat			R.Toe.Lat			R.Toe.Tip			R.Toe.Med			R.Ankle.Med			R.Midfoot.Sup			R.Heel			L.Thigh.Upper			L.Thigh.Front			L.Thigh.Rear			L.Knee.Lat			L.Knee.Med			L.Shank.Upper			L.Shank.Front			L.Shank.Rear			L.Ankle.Lat			L.Midfoot.Lat			L.Toe.Lat			L.Toe.Tip			L.Toe.Med			L.Ankle.Med			L.Midfoot.Sup			L.Heel			origin1 front left			origin2 front right			origin 3 back right			origin 4 back leftt			
		X1	Y1	Z1	X2	Y2	Z2	X3	Y3	Z3	X4	Y4	Z4	X5	Y5	Z5	X6	Y6	Z6	X7	Y7	Z7	X8	Y8	Z8	X9	Y9	Z9	X10	Y10	Z10	X11	Y11	Z11	X12	Y12	Z12	X13	Y13	Z13	X14	Y14	Z14	X15	Y15	Z15	X16	Y16	Z16	X17	Y17	Z17	X18	Y18	Z18	X19	Y19	Z19	X20	Y20	Z20	X21	Y21	Z21	X22	Y22	Z22	X23	Y23	Z23	X24	Y24	Z24	X25	Y25	Z25	X26	Y26	Z26	X27	Y27	Z27	X28	Y28	Z28	X29	Y29	Z29	X30	Y30	Z30	X31	Y31	Z31	X32	Y32	Z32	X33	Y33	Z33	X34	Y34	Z34	X35	Y35	Z35	X36	Y36	Z36	X37	Y37	Z37	X38	Y38	Z38	X39	Y39	Z39	X40	Y40	Z40	X41	Y41	Z41	X42	Y42	Z42	X43	Y43	Z43	

329	6.560	-689.31543	104.50983	1851.57788	-685.63489	-77.43991	1543.90344	-703.27087	287.16632	1532.47961	-616.06732	100.26271	1431.86926	-601.43317	-13.93290	1053.63037	-590.41943	213.61023	1073.47192	-797.59583	92.66180	1055.82483	-653.69940	-71.96677	860.40662	-591.59692	-7.35662	804.56494	-700.63123	-52.93252	720.26599	-705.34595	-30.41602	616.27008	-695.02563	79.29719	579.37921	-720.11707	-26.20983	568.84247	-672.12354	17.14140	521.38977	-768.70734	-34.50884	489.78329	-768.71405	-4.25727	207.26840	-666.28369	-67.25392	162.40302	-625.05853	-78.61749	158.67340	-561.31555	-41.11947	163.59526	-603.49304	18.44282	167.28970	-716.41504	78.42767	216.84573	-675.24792	54.96671	158.51779	-794.03003	58.03917	175.55408	-639.75507	275.92877	880.61285	-585.48352	211.05908	818.39575	-690.39630	269.36511	752.66980	-720.73022	246.62289	643.46655	-688.73718	139.54567	578.36578	-726.29089	241.91148	579.14954	-674.54535	201.09688	534.28351	-769.10791	250.97090	505.47357	-771.30933	220.81982	205.05853	-666.90369	297.92078	161.00476	-629.48438	305.93988	163.32478	-560.93286	261.69019	165.52217	-595.01624	222.34277	173.65190	-711.66455	151.01898	216.28435	-675.38300	171.59207	156.72345	-796.17902	171.35176	184.66125	-528.04077	304.16812	146.49135	-517.48273	-72.73248	143.17133	-875.95618	-78.68276	141.38046	-882.54175	296.07532	144.55283	
330	6.580	-688.99628	104.60673	1851.53723	-685.67084	-77.40687	1543.85144	-703.43878	286.97873	1532.30798	-616.18744	100.20042	1431.74524	-601.27161	-13.82012	1053.58264	-590.36462	213.70679	1073.35156	-797.38385	92.75523	1055.73401	-653.51044	-71.96811	860.48279	-591.46765	-7.23320	804.43091	-700.45685	-52.91220	720.18970	-705.23920	-30.16662	616.21570	-695.03497	79.41678	579.29504	-720.00122	-26.17682	568.93909	-671.88757	17.34457	521.47089	-768.61395	-34.35736	489.74905	-768.58234	-4.19152	207.26472	-666.28253	-67.20267	162.47989	-625.05829	-78.59065	158.67905	-561.25439	-41.10234	163.60580	-603.41113	18.47484	167.25201	-716.40833	78.45576	216.80634	-675.22168	54.96933	158.50970	-794.01227	58.07988	175.56638	-639.64941	275.99414	880.54089	-585.35187	211.08629	818.37054	-690.33801	269.43906	752.69672	-720.53906	246.72412	643.47827	-688.59045	139.52296	578.37256	-726.12329	241.95966	579.13861	-674.42926	201.06757	534.28857	-769.03394	251.02481	505.48401	-771.29407	220.82407	205.07498	-666.90930	297.90201	160.97800	-629.46051	305.97305	163.31181	-560.92334	261.68170	165.49532	-595.02698	222.30879	173.69701	-711.68695	151.00195	216.27220	-675.39294	171.60883	156.68755	-796.15759	171.32190	184.64049	-528.02637	304.18515	146.51581	-517.39880	-72.71474	143.27336	-876.01251	-78.68613	141.46107	-882.55365	296.08231	144.55130	
331	6.600	-688.63232	104.74382	1851.47644	-685.71899	-77.37492	1543.77893	-703.54755	286.89206	1532.16516	-616.29144	100.14144	1431.63745	-601.10571	-13.78078	1053.49512	-590.28650	213.78444	1073.26917	-797.16827	92.82691	1055.66553	-653.31873	-71.99581	860.55328	-591.32037	-7.10381	804.36920	-700.27020	-52.86629	720.11804	-705.16205	-29.96432	616.14722	-695.04358	79.52941	579.27167	-719.92108	-26.14373	568.98950	-671.70129	17.54235	521.52374	-768.56915	-34.28246	489.75568	-768.45581	-4.11880	207.24277	-666.28619	-67.14893	162.56252	-625.06854	-78.57232	158.70049	-561.21967	-41.09361	163.63251	-603.36218	18.48345	167.22000	-716.42010	78.48183	216.78583	-675.17346	54.96981	158.50089	-794.02063	58.11182	175.56660	-639.56451	276.09366	880.49878	-585.22583	211.12297	818.35828	-690.28564	269.52289	752.71442	-720.36456	246.79857	643.44995	-688.54681	139.50171	578.34784	-726.01074	242.01588	579.13098	-674.34955	201.05244	534.30402	-768.99957	251.05820	505.47476	-771.28455	220.81126	205.07617	-666.90210	297.87756	160.95366	-629.43109	306.00613	163.33186	-560.90350	261.66071	165.46765	-595.07599	222.27020	173.71796	-711.69482	150.99762	216.26489	-675.38043	171.62126	156.68768	-796.13751	171.28372	184.61505	-528.02393	304.23605	146.52353	-517.35577	-72.69404	143.32150	-876.05212	-78.69480	141.51407	-882.55237	296.08069	144.55641	
332	6.620	-688.25983	104.90702	1851.41382	-685.76550	-77.33980	1543.70239	-703.57574	286.94745	1532.06641	-616.37109	100.09545	1431.55273	-600.94879	-13.77208	1053.40674	-590.19513	213.83310	1073.22058	-796.97668	92.88953	1055.63354	-653.11176	-72.01324	860.55798	-591.14471	-6.95904	804.38739	-700.08588	-52.79670	720.03656	-705.09900	-29.85726	616.09851	-695.05109	79.61449	579.28101	-719.82642	-26.10771	568.99603	-671.59491	17.69236	521.52740	-768.53638	-34.28641	489.79153	-768.35480	-4.07080	207.20949	-666.27130	-67.09621	162.62561	-625.07959	-78.55863	158.73143	-561.21234	-41.08861	163.65297	-603.34235	18.47464	167.19304	-716.43188	78.49695	216.77927	-675.13562	54.99165	158.46539	-794.04047	58.13020	175.56624	-639.49603	276.20166	880.47113	-585.11572	211.16425	818.33484	-690.22253	269.60513	752.68567	-720.24921	246.83130	643.39484	-688.59454	139.50970	578.30389	-725.96246	242.06781	579.11981	-674.30176	201.07495	534.32434	-768.98206	251.09676	505.46793	-771.28796	220.79771	205.06929	-666.89392	297.86017	160.94023	-629.40961	306.01923	163.37668	-560.87909	261.64819	165.45346	-595.13898	222.24480	173.70679	-711.69208	151.00839	216.26419	-675.35114	171.61967	156.71754	-796.12769	171.26105	184.60712	-528.03351	304.27814	146.51534	-517.33771	-72.66117	143.32861	-876.04462	-78.71293	141.48814	-882.53052	296.06262	144.56856	
333	6.640	-687.92767	105.06487	1851.36206	-685.78870	-77.30240	1543.64990	-703.54382	287.06793	1531.98608	-616.41669	100.07343	1431.49951	-600.79492	-13.73699	1053.34863	-590.09290	213.88086	1073.21045	-796.82587	92.94808	1055.64294	-652.88947	-71.98978	860.47992	-590.94739	-6.78921	804.45282	-699.91821	-52.69757	719.95959	-705.02588	-29.87005	616.11279	-695.04651	79.67045	579.27130	-719.71619	-26.07709	568.97919	-671.54578	17.76433	521.51196	-768.50238	-34.33998	489.82187	-768.27362	-4.05526	207.17804	-666.23035	-67.04966	162.67621	-625.07935	-78.53796	158.76318	-561.22894	-41.08600	163.65634	-603.33130	18.47462	167.18002	-716.43854	78.50307	216.78053	-675.12189	55.04306	158.40059	-794.05511	58.12780	175.57358	-639.44067	276.29297	880.42908	-585.02832	211.19228	818.28662	-690.12891	269.70636	752.60297	-720.19971	246.83456	643.33295	-688.66992	139.55374	578.26227	-725.95966	242.09937	579.11163	-674.27374	201.12111	534.34491	-768.95807	251.16167	505.45883	-771.30194	220.79317	205.06793	-666.88391	297.86493	160.94391	-629.40155	305.99350	163.40610	-560.85254	261.67398	165.46069	-595.17206	222.23753	173.65999	-711.68353	151.03448	216.26392	-675.32141	171.60909	156.75186	-796.13184	171.27393	184.62534	-528.03876	304.27798	146.51375	-517.33099	-72.62328	143.31142	-876.00555	-78.73322	141.41252	-882.50146	296.04630	144.59322	
334	6.660	-687.65759	105.19177	1851.31091	-685.76917	-77.26525	1543.64453	-703.46820	287.19608	1531.90479	-616.41656	100.08838	1431.48767	-600.61414	-13.63680	1053.32129	-589.94562	213.97783	1073.24622	-796.70117	92.99290	1055.67932	-652.67444	-71.93444	860.36334	-590.74744	-6.59878	804.51624	-699.74225	-52.56099	719.90674	-704.92554	-29.97588	616.19971	-695.02686	79.72472	579.24292	-719.62561	-26.06103	568.96533	-671.51813	17.78461	521.50397	-768.46753	-34.40405	489.82867	-768.19922	-4.05204	207.17296	-666.17139	-67.01133	162.73955	-625.06775	-78.50786	158.79010	-561.25684	-41.09019	163.65816	-603.31299	18.49884	167.18913	-716.44128	78.50916	216.77985	-675.11444	55.10270	158.32588	-794.05676	58.11317	175.58260	-639.39612	276.36160	880.36115	-584.96118	211.20361	818.21674	-690.00018	269.84155	752.50653	-720.19537	246.85083	643.28149	-688.68610	139.60817	578.24689	-725.97021	242.10635	579.10675	-674.25702	201.15672	534.35706	-768.92169	251.23883	505.42563	-771.31256	220.79192	205.06998	-666.86859	297.89774	160.96300	-629.40100	305.93665	163.39192	-560.83081	261.73618	165.47667	-595.14648	222.24806	173.58578	-711.67285	151.06705	216.25850	-675.30133	171.60025	156.77666	-796.13232	171.30775	184.64925	-528.02795	304.24466	146.53323	-517.32794	-72.59767	143.29047	-875.97150	-78.75755	141.34953	-882.47949	296.04745	144.62189	
335	6.680	-687.44751	105.29411	1851.24487	-685.69550	-77.22027	1543.70081	-703.35669	287.38257	1531.83167	-616.35944	100.15435	1431.52722	-600.37964	-13.47114	1053.31201	-589.71515	214.15085	1073.32385	-796.56030	93.00634	1055.71521	-652.49615	-71.87791	860.27850	-590.55835	-6.41381	804.54236	-699.52679	-52.39760	719.87787	-704.80939	-30.11385	616.32892	-695.00641	79.79677	579.22375	-719.56824	-26.06315	568.97583	-671.49817	17.82022	521.47742	-768.42993	-34.44813	489.82013	-768.12842	-4.04586	207.21378	-666.09625	-66.97981	162.81178	-625.05005	-78.47607	158.80559	-561.27759	-41.10069	163.66977	-603.28821	18.53132	167.21405	-716.44049	78.52061	216.76741	-675.09686	55.13636	158.25920	-794.04816	58.11046	175.57901	-639.36407	276.40762	880.28827	-584.90216	211.22195	818.14661	-689.85938	269.98080	752.44720	-720.20740	246.91196	643.25305	-688.60822	139.63864	578.25214	-725.96735	242.09755	579.09558	-674.25104	201.17464	534.35181	-768.88208	251.28517	505.37265	-771.30811	220.78613	205.06665	-666.85120	297.94427	160.98326	-629.39862	305.88959	163.34839	-560.82733	261.79361	165.47615	-595.07660	222.28033	173.52768	-711.66217	151.08673	216.25246	-675.28735	171.59734	156.79581	-796.11609	171.33186	184.65706	-528.00702	304.21262	146.56477	-517.32562	-72.59429	143.28629	-875.95764	-78.79192	141.32277	-882.47192	296.06509	144.63469	
336	6.700	-687.29126	105.40558	1851.16772	-685.56171	-77.14682	1543.81689	-703.24219	287.65820	1531.77222	-616.24127	100.28111	1431.62073	-600.09320	-13.26504	1053.30334	-589.41229	214.38048	1073.42358	-796.37219	92.97696	1055.72974	-652.35870	-71.83028	860.26105	-590.38336	-6.26290	804.53461	-699.28650	-52.24722	719.87268	-704.70129	-30.22562	616.46179	-694.99896	79.87386	579.22211	-719.52289	-26.08486	569.01984	-671.48724	17.90190	521.39978	-768.38910	-34.45456	489.80789	-768.05975	-4.02970	207.29568	-666.00818	-66.95064	162.87781	-625.02563	-78.44259	158.80911	-561.28149	-41.11526	163.68661	-603.27197	18.54797	167.23817	-716.43353	78.53548	216.73540	-675.06848	55.13409	158.20590	-794.03595	58.12688	175.56448	-639.34259	276.42484	880.24048	-584.83051	211.27223	818.09692	-689.72791	270.06534	752.41620	-720.20679	247.00377	643.25336	-688.49207	139.63083	578.24615	-725.94135	242.08919	579.07318	-674.25812	201.19351	534.32465	-768.84747	251.28305	505.32495	-771.28998	220.77783	205.05493	-666.84100	297.96948	160.98779	-629.39423	305.88846	163.31035	-560.84668	261.80829	165.45854	-595.00751	222.33258	173.53944	-711.65234	151.07843	216.25449	-675.27521	171.59857	156.81332	-796.09613	171.33795	184.65680	-527.98615	304.20206	146.59450	-517.32733	-72.60461	143.29768	-875.96191	-78.82300	141.33154	-882.48273	296.09427	144.62680	
